<svg xmlns="http://www.w3.org/2000/svg" width="1350" height="236" viewBox="0 0 1350 236">
  <defs>
    <style>
      .cls-1 {
        fill: #2f2e43;
      }

      .cls-2 {
        fill: #444266;
      }

      .cls-2, .cls-3 {
        fill-rule: evenodd;
      }

      .cls-3 {
        fill: #999fbd;
      }
    </style>
  </defs>
  <rect id="Retângulo_Arredondado_1" data-name="Retângulo Arredondado 1" class="cls-1" x="41" y="41" width="1259" height="151" rx="69.5" ry="69.5"/>
  <path id="_" data-name="/&gt;" class="cls-2" d="M1214.05,69.449L1209,66.9l-43.05,88.5,5.15,2.25Zm20.3,24.15,36.15,22.75-36.15,22.6,3.75,4.85,37.7-23.65v-7.8l-38.25-23.6Z"/>
  <path id="components" class="cls-3" d="M469.83,140.624a15.206,15.206,0,0,1-5.925-7,29.268,29.268,0,0,1-2.15-12.075q0-10.9,4.725-16.4a15.1,15.1,0,0,1,11.975-5.5,21,21,0,0,1,7.025,1.225,30.06,30.06,0,0,1,7.025,3.675l3.3-4.45a26.365,26.365,0,0,0-7.975-4.45,27.5,27.5,0,0,0-9.075-1.5,21.821,21.821,0,0,0-21.125,13.4,33.915,33.915,0,0,0-2.775,14,34.257,34.257,0,0,0,2.775,14.3,21.094,21.094,0,0,0,8.1,9.425,24.025,24.025,0,0,0,12.975,3.325,28.152,28.152,0,0,0,9-1.625,25.25,25.25,0,0,0,8.25-4.525l-3.25-4.2a27.371,27.371,0,0,1-6.475,3.35,22.583,22.583,0,0,1-7.775,1.3A16.373,16.373,0,0,1,469.83,140.624Zm58.249-43a21.037,21.037,0,0,0-7.325,9.625,38.16,38.16,0,0,0-2.45,14.2,38.318,38.318,0,0,0,2.425,14.175,20.7,20.7,0,0,0,7.25,9.55A20.255,20.255,0,0,0,540,148.6a19.563,19.563,0,0,0,11.975-3.575,21.837,21.837,0,0,0,7.275-9.725,37.448,37.448,0,0,0,2.45-13.95,39.627,39.627,0,0,0-2.375-14.4,20.021,20.021,0,0,0-7.175-9.45A22.939,22.939,0,0,0,528.079,97.624Zm23.1,7.325q3.725,5.351,3.725,16.4,0,11-3.75,16.375T540,143.1q-7.4,0-11.15-5.375t-3.75-16.275q0-11.149,3.825-16.5t11.225-5.35Q547.453,99.6,551.179,104.949Zm61.274-8.825a19.405,19.405,0,0,0-4.7,5.175q-1.35-4.3-4.175-5.725a12.789,12.789,0,0,0-5.825-1.425,10.516,10.516,0,0,0-6.775,2.175,24.1,24.1,0,0,0-4.775,5.125l-0.35-6.35h-5.1v52.5h6V106.2a17.108,17.108,0,0,1,4.925-5.475,9.712,9.712,0,0,1,5.375-1.675q3.2,0,3.825,2.5a37.119,37.119,0,0,1,.625,8.1V147.6h6.9V106.2a16.82,16.82,0,0,1,4.975-5.475,9.8,9.8,0,0,1,5.325-1.675q3.2,0,3.825,2.5a37.119,37.119,0,0,1,.625,8.1V147.6h6.1v-39.15q0-6.251-1.6-9.3a8.255,8.255,0,0,0-3.9-4.025,11.377,11.377,0,0,0-4.45-.975A11.166,11.166,0,0,0,612.453,96.124ZM663.627,96.5a21.334,21.334,0,0,0-6.875,6.35l-0.7-7.75h-5.1v73.4l6.2-.85v-25.3q5.349,6.25,14.3,6.25a17.906,17.906,0,0,0,11.425-3.525,20.774,20.774,0,0,0,6.65-9.675,42.014,42.014,0,0,0,2.175-14.05,50.821,50.821,0,0,0-1.8-14.275,18.749,18.749,0,0,0-5.95-9.525q-4.151-3.4-11.2-3.4A17.933,17.933,0,0,0,663.627,96.5Zm15.55,5.5a15.073,15.073,0,0,1,4.325,7.4,43.263,43.263,0,0,1,1.4,11.85q0,11-3.575,16.35t-10.875,5.35a15.356,15.356,0,0,1-7.6-1.95,16.421,16.421,0,0,1-5.7-5.2V108.6a28.466,28.466,0,0,1,5.95-6.225,13.393,13.393,0,0,1,8.55-2.925A11.037,11.037,0,0,1,679.177,102Zm43.9-4.375a21.037,21.037,0,0,0-7.325,9.625,38.16,38.16,0,0,0-2.45,14.2,38.318,38.318,0,0,0,2.425,14.175,20.7,20.7,0,0,0,7.25,9.55A20.255,20.255,0,0,0,735,148.6a19.563,19.563,0,0,0,11.975-3.575,21.837,21.837,0,0,0,7.275-9.725,37.448,37.448,0,0,0,2.45-13.95,39.627,39.627,0,0,0-2.375-14.4,20.021,20.021,0,0,0-7.175-9.45A22.939,22.939,0,0,0,723.076,97.624Zm23.1,7.325q3.724,5.351,3.725,16.4,0,11-3.75,16.375T735,143.1q-7.4,0-11.15-5.375t-3.75-16.275q0-11.149,3.825-16.5t11.225-5.35Q742.45,99.6,746.176,104.949ZM787.15,147.6V108.9a24.3,24.3,0,0,1,3.675-4.325,21.689,21.689,0,0,1,5.4-3.75A14.6,14.6,0,0,1,802.8,99.3q4.6,0,6.75,1.725a8.6,8.6,0,0,1,2.8,5.475,59.191,59.191,0,0,1,.65,9.75V147.6h6.2v-38q0-7.249-3.425-11.35t-11.475-4.1a23.49,23.49,0,0,0-9.475,2.25,20.367,20.367,0,0,0-8.175,6.35l-0.5-7.65h-5.2v52.5h6.2Zm99-23.75q0.049-.8.1-1.875t0.05-2.425a34.282,34.282,0,0,0-2.425-13.525,19.638,19.638,0,0,0-6.975-8.775,18.979,18.979,0,0,0-10.95-3.1,19.708,19.708,0,0,0-11.575,3.475,23.1,23.1,0,0,0-7.775,9.625,33.816,33.816,0,0,0-2.8,14.15,34.576,34.576,0,0,0,2.75,14.275,21.725,21.725,0,0,0,7.925,9.525,22.118,22.118,0,0,0,12.425,3.4,27.737,27.737,0,0,0,8.925-1.55,28.323,28.323,0,0,0,8.225-4.35l-3.25-4.65a31.331,31.331,0,0,1-6.775,3.65,21.059,21.059,0,0,1-7.375,1.2,16.278,16.278,0,0,1-7.95-2,14.588,14.588,0,0,1-5.875-6.225,24.372,24.372,0,0,1-2.375-10.825h35.7Zm-9.9-19.375Q880.2,109,880.4,118.249h-29.85q0.551-9.3,4.875-13.8a14.219,14.219,0,0,1,10.675-4.5A12.859,12.859,0,0,1,876.249,104.474Zm40.9,43.125V108.9a24.3,24.3,0,0,1,3.675-4.325,21.689,21.689,0,0,1,5.4-3.75A14.6,14.6,0,0,1,932.8,99.3q4.6,0,6.75,1.725a8.593,8.593,0,0,1,2.8,5.475,59.191,59.191,0,0,1,.65,9.75V147.6h6.2v-38q0-7.249-3.425-11.35t-11.475-4.1a23.494,23.494,0,0,0-9.475,2.25,20.381,20.381,0,0,0-8.175,6.35l-0.5-7.65h-5.2v52.5h6.2Zm96.152-6.95a23.923,23.923,0,0,1-4.75,1.85,20.9,20.9,0,0,1-5.55.7q-5.855,0-8.328-2.475T992.2,133.7V100.3h17.653l0.85-5.2H992.2V82.249L986,83V95.1H973.6v5.2H986v33.55a13.861,13.861,0,0,0,4.475,10.55q4.475,4.2,12.378,4.2a29.139,29.139,0,0,0,6.85-.9,20.27,20.27,0,0,0,6.3-2.6Zm35.85,0.725A25.2,25.2,0,0,1,1042,137.2l-3.85,4.55a28.637,28.637,0,0,0,19.65,6.85,35.238,35.238,0,0,0,10.2-1.475,17.788,17.788,0,0,0,8.02-4.8,12.451,12.451,0,0,0,3.13-8.875,13.436,13.436,0,0,0-2.15-7.9,15.7,15.7,0,0,0-6-4.95,47.875,47.875,0,0,0-9-3.25,77.646,77.646,0,0,1-8.5-2.725,11.24,11.24,0,0,1-4.53-2.95,6.5,6.5,0,0,1-1.37-4.275,6.769,6.769,0,0,1,2.8-5.55q2.79-2.2,9.75-2.2a25.624,25.624,0,0,1,9,1.35,29.207,29.207,0,0,1,6.45,3.4l2.9-4.6a28.921,28.921,0,0,0-7.68-4,31.57,31.57,0,0,0-10.72-1.65,27.642,27.642,0,0,0-9.78,1.625,15.494,15.494,0,0,0-6.8,4.7,11.465,11.465,0,0,0-2.47,7.425,11.171,11.171,0,0,0,2.25,7.3,15.793,15.793,0,0,0,6.37,4.45,70.116,70.116,0,0,0,9.78,3.1,34.567,34.567,0,0,1,8.37,2.875,7.707,7.707,0,0,1,3.55,3.45,11.421,11.421,0,0,1,.83,4.525,7.845,7.845,0,0,1-3.83,6.775q-3.825,2.576-10.52,2.575A23.792,23.792,0,0,1,1049.15,141.374Z"/>
  <path id="_-" data-name="-" class="cls-2" d="M430.05,119.2v-5.8h-39.1v5.8h39.1Z"/>
  <path id="star" class="cls-3" d="M140.727,136.749a29.7,29.7,0,0,1-7.025-4l-7.95,8.9a32.446,32.446,0,0,0,10.05,5.8,42.107,42.107,0,0,0,26.1.25,20.873,20.873,0,0,0,9.15-5.875,14.2,14.2,0,0,0,3.45-9.725,13.538,13.538,0,0,0-8.025-13.45,51.891,51.891,0,0,0-8.975-3.35q-5.2-1.5-7.9-2.525a10.931,10.931,0,0,1-3.675-2,3.174,3.174,0,0,1-.975-2.325,3.306,3.306,0,0,1,1.875-3.075,12.358,12.358,0,0,1,5.725-1.025,24.827,24.827,0,0,1,7.65,1.225,32.059,32.059,0,0,1,7.1,3.275l6.3-9.3a34.738,34.738,0,0,0-9.125-4.625A37.891,37.891,0,0,0,152.1,93.1a33.077,33.077,0,0,0-12.6,2.125,17.477,17.477,0,0,0-7.8,5.825,14.147,14.147,0,0,0-2.65,8.45,13.969,13.969,0,0,0,2.075,7.85,15.6,15.6,0,0,0,5.8,5.15,39.888,39.888,0,0,0,8.575,3.3q5.3,1.451,8,2.5a9.06,9.06,0,0,1,3.65,2.2,4.329,4.329,0,0,1,.95,2.85,4.01,4.01,0,0,1-2.425,3.75,13.939,13.939,0,0,1-6.375,1.25A22.5,22.5,0,0,1,140.727,136.749Zm94.824-1.95a19.385,19.385,0,0,1-4.175,1.725,18.341,18.341,0,0,1-5.125.675q-3.951,0-5.75-1.7t-1.8-5.65v-24.1h15.55l1.55-10.9H218.7v-13.4l-15.8,1.9v11.5h-11.15v10.9H202.9v24.1q0,9.15,5.05,14.475t15.45,5.325a32.6,32.6,0,0,0,9.9-1.4,31.308,31.308,0,0,0,7.5-3.4Zm67.149-22.95q0-9.1-5.675-13.925T279.5,93.1a57.159,57.159,0,0,0-9.975,1,60.293,60.293,0,0,0-10.725,2.95l3.65,10.5a56.614,56.614,0,0,1,8-2.075,38.3,38.3,0,0,1,6.55-.725q5.149,0,7.825,2t2.675,6.15v2h-7.15q-12.3,0-19.075,4.7t-6.775,13.35a15.923,15.923,0,0,0,4.875,12.025q4.875,4.674,13.075,4.675a27.515,27.515,0,0,0,9.7-1.775,18.278,18.278,0,0,0,7.8-5.425,11.843,11.843,0,0,0,5.075,4.925,22.312,22.312,0,0,0,7.925,2.075l3.25-10.4a5.107,5.107,0,0,1-2.675-2.05,8.674,8.674,0,0,1-.825-4.35v-20.8Zm-30.025,24.775a6.164,6.164,0,0,1-1.875-4.775,6.633,6.633,0,0,1,3.1-5.925q3.1-2.025,9.7-2.025h3.9v8.6a10.129,10.129,0,0,1-4.25,4.325,11.2,11.2,0,0,1-5.35,1.525A7.429,7.429,0,0,1,272.675,136.624ZM356.8,147.949v-10.6H346.3v-15.2a27.957,27.957,0,0,1,5.975-10.8,12.078,12.078,0,0,1,9.125-4.25,23.577,23.577,0,0,1,3.2.2,22.639,22.639,0,0,1,2.9.6l4.8-13.05a22.238,22.238,0,0,0-3.95-1.175,24.4,24.4,0,0,0-4.8-.425,17.417,17.417,0,0,0-10.825,3.35q-4.425,3.35-7.275,10.2l-2.9-11.95H323.5v10.5h7v32h-7v10.6h33.3Zm15.5-53.1H361.8l-2.35,6.7v15.5ZM369,117"/>
  <path id="Forma_316_1" data-name="Forma 316 1" class="cls-3" d="M351,97.044l8.333,9.914-1.666,12.391,12.5-5.783,12.5,7.435L381,106.13l10-9.086-13.333-.826L371.833,83l-6.666,12.391Z"/>
  <path id="_2" data-name="&lt;" class="cls-2" d="M64.851,112.349v7.8l37.7,23.65,3.75-4.65-36.149-22.8,36.15-22.5-3.25-5.1Z"/>
</svg>
